<?xml version="1.0" encoding="UTF-8"?>
<svg version="1.1" xmlns="http://www.w3.org/2000/svg" width="500" height="500">
<path d="M0 0 C165 0 330 0 500 0 C500 165 500 330 500 500 C335 500 170 500 0 500 C0 335 0 170 0 0 Z " fill="#FEFEFE" transform="translate(0,0)"/>
<path d="M0 0 C84.14130435 0 84.14130435 0 96.75 4.75 C97.46607422 5.01385498 98.18214844 5.27770996 98.91992188 5.54956055 C113.1243358 10.95655748 122.40378349 19.13899887 129.58984375 32.59375 C132.70213023 40.11151678 133.34204477 47.35996064 133.3125 55.4375 C133.32861328 56.31470703 133.34472656 57.19191406 133.36132812 58.09570312 C133.37260242 73.39492432 126.57264746 85.37350204 116 96 C115.09314453 96.9590625 115.09314453 96.9590625 114.16796875 97.9375 C108.17035049 103.79138448 100.59857433 106.74488157 93 110 C93.680625 110.639375 94.36125 111.27875 95.0625 111.9375 C101.97846438 118.88749725 107.26621315 127.21802889 112.625 135.375 C114.0433238 137.518856 115.46260575 139.6620784 116.8828125 141.8046875 C117.58051758 142.8575293 118.27822266 143.91037109 118.99707031 144.99511719 C121.79317195 149.18995128 124.64086944 153.34797862 127.5 157.5 C132.65856366 165.00545192 137.75044012 172.55426911 142.8125 180.125 C143.52535156 181.18783203 144.23820313 182.25066406 144.97265625 183.34570312 C145.6275 184.32732422 146.28234375 185.30894531 146.95703125 186.3203125 C147.54460205 187.19961426 148.13217285 188.07891602 148.73754883 188.98486328 C150 191 150 191 150 192 C144.71651398 192.1489597 139.43426487 192.25750071 134.14916992 192.32958984 C132.35370579 192.35965704 130.55838726 192.4005234 128.76342773 192.45263672 C126.17395026 192.52590349 123.58642301 192.55955491 120.99609375 192.5859375 C119.80348183 192.63238907 119.80348183 192.63238907 118.58677673 192.67977905 C113.22430634 192.68297559 110.37052723 191.46072425 106.52165222 187.71124268 C104.2391111 185.14430805 102.34678987 182.46742916 100.49609375 179.57421875 C100.09930923 178.9613501 99.70252472 178.34848145 99.29371643 177.71704102 C98.44179952 176.39867307 97.5947432 175.07715348 96.75219727 173.7527771 C95.41374718 171.65018634 94.06151167 169.55709297 92.70507812 167.46606445 C90.78891808 164.51111638 88.87687101 161.55358067 86.96826172 158.59375 C82.4964862 151.6662255 77.98933341 144.76243954 73.44509888 137.88223267 C72.02061433 135.71880786 70.60880204 133.54746066 69.19702148 131.37573242 C68.31956883 130.04558518 67.44143064 128.71588983 66.5625 127.38671875 C66.17373184 126.78190674 65.78496368 126.17709473 65.38441467 125.55395508 C62.79864902 121.68415395 61.22942773 120.53765664 57 118 C50.07 117.67 43.14 117.34 36 117 C36 142.08 36 167.16 36 193 C24.12 193 12.24 193 0 193 C0 129.31 0 65.62 0 0 Z " fill="#343434" transform="translate(147,160)"/>
<path d="M0 0 C3.52579305 3.39549903 6.04324251 7.01605476 8.5625 11.1875 C9.45320874 12.63746788 10.34517693 14.08666269 11.23828125 15.53515625 C11.92398193 16.64914795 11.92398193 16.64914795 12.62353516 17.78564453 C14.78506099 21.26294842 17.01563023 24.69421672 19.25 28.125 C23.54029952 34.72469152 27.7805123 41.354822 32 48 C35.70804269 53.83851455 39.42092014 59.67309171 43.1862793 65.47485352 C44.05729815 66.81755959 44.92597943 68.16178516 45.79223633 69.50756836 C48.41925082 73.58621349 51.09050021 77.63103359 53.79296875 81.66015625 C55.09148998 83.62737704 56.38967039 85.59482285 57.6875 87.5625 C58.31269531 88.47902344 58.93789063 89.39554687 59.58203125 90.33984375 C63.19344913 95.86223611 65.11754332 99.37701323 64 106 C62.81277667 108.54447614 61.69324266 110.53440814 60.125 112.8125 C59.69372803 113.47137207 59.26245605 114.13024414 58.81811523 114.80908203 C57.23176483 117.2196888 55.61629475 119.60936881 54 122 C52.57048877 124.13597737 51.14194917 126.27257353 49.71484375 128.41015625 C48.94860381 129.55764129 48.18232725 130.70510189 47.41601562 131.85253906 C47.02937744 132.43152954 46.64273926 133.01052002 46.24438477 133.60705566 C45.05859315 135.38084414 43.87023308 137.15289214 42.68164062 138.92480469 C37.88835765 146.08300406 33.2689151 153.32005735 28.83789062 160.70874023 C25.26318452 166.64530574 21.45131469 172.40029956 17.57348633 178.14233398 C13.14450289 184.72036866 8.91611543 191.41616628 4.74438477 198.15991211 C4.02980103 199.30665405 4.02980103 199.30665405 3.30078125 200.4765625 C2.87966064 201.15799316 2.45854004 201.83942383 2.0246582 202.54150391 C1.686521 203.02280762 1.34838379 203.50411133 1 204 C0.67 204 0.34 204 0 204 C-2.08446987 180.88042315 -1.12764513 165.77530011 13.77197266 146.89990234 C17.41424441 142.15928171 20.54963007 137.10685271 23.75 132.0625 C27.30833321 126.56026254 30.90633164 121.09858175 34.67578125 115.73828125 C35.53381348 114.50356079 35.53381348 114.50356079 36.40917969 113.24389648 C37.48139751 111.70761038 38.56851193 110.1815734 39.67285156 108.66821289 C40.14303711 107.99137451 40.61322266 107.31453613 41.09765625 106.6171875 C41.51539307 106.03565918 41.93312988 105.45413086 42.36352539 104.85498047 C43.22581466 102.9172045 43.22581466 102.9172045 42.30981445 100.57714844 C40.98851517 97.97740283 39.55725233 95.57857708 37.9453125 93.1484375 C37.33671387 92.22458252 36.72811523 91.30072754 36.10107422 90.34887695 C35.44896973 89.36749756 34.79686523 88.38611816 34.125 87.375 C32.75407976 85.29371169 31.38430285 83.21166986 30.015625 81.12890625 C29.33435547 80.09266113 28.65308594 79.05641602 27.95117188 77.98876953 C25.21183662 73.79270569 22.53676109 69.55805181 19.875 65.3125 C15.03166476 57.59408028 10.08913517 49.94396322 5.09912109 42.31958008 C4.57785645 41.52189209 4.0565918 40.7242041 3.51953125 39.90234375 C3.05651611 39.19585693 2.59350098 38.48937012 2.11645508 37.76147461 C-0.29171409 33.96201243 -0.12851817 30.75247042 -0.09765625 26.3671875 C-0.0962413 25.61535187 -0.09482635 24.86351624 -0.09336853 24.08889771 C-0.08776465 21.6842249 -0.07521157 19.27964473 -0.0625 16.875 C-0.0574855 15.24609509 -0.0529225 13.61718873 -0.04882812 11.98828125 C-0.03779397 7.99215173 -0.02052679 3.99609158 0 0 Z " fill="#FF924D" transform="translate(309,154)"/>
<path d="M0 0 C43.55737705 0 43.55737705 0 54.96875 9.66796875 C61.37285475 16.52726722 62.48877321 23.92267353 62.421875 32.99365234 C62.087737 42.39568005 58.83648763 49.57680129 52 56 C37.36333477 67.91356472 17.51849275 65 0 65 C0 43.55 0 22.1 0 0 Z " fill="#FCFCFC" transform="translate(183,187)"/>
</svg>
