<?xml version="1.0" encoding="UTF-8"?>
<svg version="1.1" xmlns="http://www.w3.org/2000/svg" width="500" height="500">
<path d="M0 0 C165 0 330 0 500 0 C500 165 500 330 500 500 C335 500 170 500 0 500 C0 335 0 170 0 0 Z " fill="#FE904B" transform="translate(0,0)"/>
<path d="M0 0 C84.14130435 0 84.14130435 0 96.75 4.75 C97.46607422 5.01385498 98.18214844 5.27770996 98.91992188 5.54956055 C113.1243358 10.95655748 122.40378349 19.13899887 129.58984375 32.59375 C132.70213023 40.11151678 133.34204477 47.35996064 133.3125 55.4375 C133.32861328 56.31470703 133.34472656 57.19191406 133.36132812 58.09570312 C133.37260242 73.39492432 126.57264746 85.37350204 116 96 C115.09314453 96.9590625 115.09314453 96.9590625 114.16796875 97.9375 C108.17035049 103.79138448 100.59857433 106.74488157 93 110 C93.680625 110.639375 94.36125 111.27875 95.0625 111.9375 C101.97846438 118.88749725 107.26621315 127.21802889 112.625 135.375 C114.0433238 137.518856 115.46260575 139.6620784 116.8828125 141.8046875 C117.58051758 142.8575293 118.27822266 143.91037109 118.99707031 144.99511719 C121.79317195 149.18995128 124.64086944 153.34797862 127.5 157.5 C132.65856366 165.00545192 137.75044012 172.55426911 142.8125 180.125 C143.52535156 181.18783203 144.23820313 182.25066406 144.97265625 183.34570312 C145.6275 184.32732422 146.28234375 185.30894531 146.95703125 186.3203125 C147.54460205 187.19961426 148.13217285 188.07891602 148.73754883 188.98486328 C150 191 150 191 150 192 C144.71651398 192.1489597 139.43426487 192.25750071 134.14916992 192.32958984 C132.35370579 192.35965704 130.55838726 192.4005234 128.76342773 192.45263672 C126.17395026 192.52590349 123.58642301 192.55955491 120.99609375 192.5859375 C119.80348183 192.63238907 119.80348183 192.63238907 118.58677673 192.67977905 C113.22430634 192.68297559 110.37052723 191.46072425 106.52165222 187.71124268 C104.2391111 185.14430805 102.34678987 182.46742916 100.49609375 179.57421875 C100.09930923 178.9613501 99.70252472 178.34848145 99.29371643 177.71704102 C98.44179952 176.39867307 97.5947432 175.07715348 96.75219727 173.7527771 C95.41374718 171.65018634 94.06151167 169.55709297 92.70507812 167.46606445 C90.78891808 164.51111638 88.87687101 161.55358067 86.96826172 158.59375 C82.4964862 151.6662255 77.98933341 144.76243954 73.44509888 137.88223267 C72.02061433 135.71880786 70.60880204 133.54746066 69.19702148 131.37573242 C68.31956883 130.04558518 67.44143064 128.71588983 66.5625 127.38671875 C66.17373184 126.78190674 65.78496368 126.17709473 65.38441467 125.55395508 C62.79864902 121.68415395 61.22942773 120.53765664 57 118 C50.07 117.67 43.14 117.34 36 117 C36 142.08 36 167.16 36 193 C24.12 193 12.24 193 0 193 C0 129.31 0 65.62 0 0 Z " fill="#343333" transform="translate(147,160)"/>
<path d="M0 0 C3.52580595 3.39551146 6.04317451 7.01609977 8.5625 11.1875 C9.45583436 12.64136112 10.35040508 14.09446314 11.24609375 15.546875 C11.7035498 16.29001953 12.16100586 17.03316406 12.63232422 17.79882812 C14.7507622 21.20829561 16.93517782 24.57359687 19.125 27.9375 C25.76195513 38.15325227 32.31807775 48.42044834 38.87988281 58.68457031 C41.03083045 62.04821252 43.1830904 65.4110109 45.3359375 68.7734375 C46.04403564 69.87945312 46.75213379 70.98546875 47.48168945 72.125 C48.82390676 74.22139761 50.16618721 76.31775479 51.50854492 78.4140625 C52.73738131 80.33374843 53.96141479 82.25651891 55.18017578 84.18261719 C56.42384317 86.10801586 57.70561509 88.00919169 59.01904297 89.88769531 C62.89785203 95.54676579 65.25595347 99.09225591 64 106 C62.81277667 108.54447614 61.69324266 110.53440814 60.125 112.8125 C59.69372803 113.47137207 59.26245605 114.13024414 58.81811523 114.80908203 C57.23176483 117.2196888 55.61629475 119.60936881 54 122 C52.57048877 124.13597737 51.14194917 126.27257353 49.71484375 128.41015625 C48.94860381 129.55764129 48.18232725 130.70510189 47.41601562 131.85253906 C47.02937744 132.43152954 46.64273926 133.01052002 46.24438477 133.60705566 C45.05859315 135.38084414 43.87023308 137.15289214 42.68164062 138.92480469 C37.88835765 146.08300406 33.2689151 153.32005735 28.83789062 160.70874023 C25.26318452 166.64530574 21.45131469 172.40029956 17.57348633 178.14233398 C13.14450289 184.72036866 8.91611543 191.41616628 4.74438477 198.15991211 C4.02980103 199.30665405 4.02980103 199.30665405 3.30078125 200.4765625 C2.87966064 201.15799316 2.45854004 201.83942383 2.0246582 202.54150391 C1.686521 203.02280762 1.34838379 203.50411133 1 204 C0.67 204 0.34 204 0 204 C-2.08446987 180.88042315 -1.12764513 165.77530011 13.77197266 146.89990234 C17.41424441 142.15928171 20.54963007 137.10685271 23.75 132.0625 C27.30833321 126.56026254 30.90633164 121.09858175 34.67578125 115.73828125 C35.53381348 114.50356079 35.53381348 114.50356079 36.40917969 113.24389648 C37.48139751 111.70761038 38.56851193 110.1815734 39.67285156 108.66821289 C42.4476491 104.90850057 42.4476491 104.90850057 42.59765625 100.4609375 C42.07042969 99.64882812 41.54320312 98.83671875 41 98 C40.32710938 96.90171875 39.65421875 95.8034375 38.9609375 94.671875 C38.1030207 93.3619138 37.24071284 92.05482216 36.375 90.75 C35.37940988 89.23099177 34.38467119 87.71142528 33.390625 86.19140625 C32.84857422 85.36398926 32.30652344 84.53657227 31.74804688 83.68408203 C28.50659139 78.70690862 25.32010349 73.6945006 22.125 68.6875 C16.42709723 59.76765387 10.69110608 50.87402636 4.89697266 42.01635742 C4.39601074 41.24912354 3.89504883 40.48188965 3.37890625 39.69140625 C2.72257202 38.68895874 2.72257202 38.68895874 2.05297852 37.66625977 C-0.31713707 33.91572908 -0.12807059 30.68887214 -0.09765625 26.3671875 C-0.0962413 25.61535187 -0.09482635 24.86351624 -0.09336853 24.08889771 C-0.08776465 21.6842249 -0.07521157 19.27964473 -0.0625 16.875 C-0.0574855 15.24609509 -0.0529225 13.61718873 -0.04882812 11.98828125 C-0.03779397 7.99215173 -0.02052679 3.99609158 0 0 Z " fill="#FFFDFC" transform="translate(309,154)"/>
<path d="M0 0 C43.55737705 0 43.55737705 0 54.96875 9.66796875 C61.37285475 16.52726722 62.48877321 23.92267353 62.421875 32.99365234 C62.087737 42.39568005 58.83648763 49.57680129 52 56 C37.36333477 67.91356472 17.51849275 65 0 65 C0 43.55 0 22.1 0 0 Z " fill="#FC8F4A" transform="translate(183,187)"/>
</svg>
