<?xml version="1.0" encoding="UTF-8"?>
<svg version="1.1" xmlns="http://www.w3.org/2000/svg" width="500" height="500">
<path d="M0 0 C165 0 330 0 500 0 C500 165 500 330 500 500 C335 500 170 500 0 500 C0 335 0 170 0 0 Z " fill="#FEFEFE" transform="translate(0,0)"/>
<path d="M0 0 C165 0 165 0 185 5 C186.21558594 5.28359375 187.43117187 5.5671875 188.68359375 5.859375 C222.29567374 13.83393716 254.28800685 29.78563458 273 60 C283.45614705 78.11258743 287.40299869 99.11846573 287.3125 119.8125 C287.30976578 120.80470551 287.30976578 120.80470551 287.30697632 121.81695557 C287.26154762 131.60913471 286.7840914 140.570013 284 150 C283.6596875 151.2684375 283.319375 152.536875 282.96875 153.84375 C274.49660915 184.14567539 255.1925025 208.99852956 228 225 C218.12060072 230.40680598 207.8389102 234.90625917 197 238 C198.05960937 238.8353125 198.05960937 238.8353125 199.140625 239.6875 C202.07544369 242.06101457 204.92882878 244.49229225 207.75 247 C208.71421875 247.845625 209.6784375 248.69125 210.671875 249.5625 C219.84200924 258.49645096 226.64276344 270.22196326 233.75 280.8125 C234.76056314 282.31313714 235.77147491 283.81353955 236.78271484 285.3137207 C238.85146217 288.38314475 240.91887601 291.45346015 242.98535156 294.52441406 C247.08872744 300.61964996 251.21090271 306.70211603 255.33435059 312.78378296 C257.0643484 315.33554201 258.79352619 317.88785626 260.52270508 320.44017029 C261.81747226 322.35127649 263.11233944 324.2623149 264.40722656 326.17333984 C268.33434401 331.96921714 272.26070277 337.76560837 276.18713379 343.56195068 C277.49547462 345.49331965 278.80388001 347.42464487 280.11230469 349.35595703 C284.10608164 355.2510972 288.09948475 361.14648913 292.09117126 367.04304504 C293.45558104 369.05849391 294.82018197 371.07381325 296.18481445 373.08911133 C297.95746008 375.70698348 299.72933597 378.32537426 301.50073242 380.9440918 C305.53068278 386.89894675 309.57267333 392.84469965 313.65234375 398.765625 C314.35955566 399.79421631 315.06676758 400.82280762 315.79541016 401.88256836 C317.10485223 403.78460349 318.41811178 405.68401825 319.73583984 407.58032227 C320.58782959 408.81866821 320.58782959 408.81866821 321.45703125 410.08203125 C321.95178955 410.79593018 322.44654785 411.5098291 322.95629883 412.24536133 C324 414 324 414 324 416 C313.9071075 416.13963084 303.81444851 416.24593885 293.72078323 416.31087303 C289.03274425 416.34205418 284.34537087 416.3842817 279.65771484 416.45263672 C275.12537947 416.51830578 270.59368023 416.55380518 266.06090546 416.56926346 C264.3402481 416.58026527 262.61962165 416.60174763 260.89923859 416.63438034 C250.38858178 416.8256401 241.90164625 416.39022624 233 410 C229.83024116 406.93135239 227.4430737 403.67352688 225 400 C224.58298828 399.37480469 224.16597656 398.74960937 223.73632812 398.10546875 C221.09832771 394.13162982 218.50768918 390.12875486 215.93359375 386.11328125 C211.74400547 379.58293368 207.48612283 373.09830591 203.22421265 366.61505127 C200.94767279 363.15176118 198.67318974 359.68712062 196.3984375 356.22265625 C195.94468246 355.53169861 195.49092743 354.84074097 195.02342224 354.12884521 C190.89758877 347.84570204 186.77779385 341.55861404 182.65957642 335.27047729 C180.32447341 331.70516948 177.98867657 328.1403162 175.65293884 324.57542419 C173.55406345 321.3720329 171.45535665 318.16853138 169.35693359 314.96484375 C163.2468549 305.63736931 157.12890159 296.3151176 151 287 C150.62925354 286.43615601 150.25850708 285.87231201 149.87652588 285.29138184 C147.59043685 281.8152049 145.29742015 278.34369667 143 274.875 C142.45496826 274.04677734 141.90993652 273.21855469 141.34838867 272.36523438 C135.91440804 263.6568941 135.91440804 263.6568941 127.875 257.6875 C127.21242188 257.38199219 126.54984375 257.07648438 125.8671875 256.76171875 C110.76080447 250.59907295 93.31084279 254.37070097 77 254 C77 307.46 77 360.92 77 416 C51.59 416 26.18 416 0 416 C0 278.72 0 141.44 0 0 Z " fill="#333333" transform="translate(10,55)"/>
<path d="M0 0 C2.7136411 3.35550589 5.19097764 6.7145263 7.50390625 10.359375 C8.15657471 11.38417969 8.80924316 12.40898438 9.48168945 13.46484375 C10.16835693 14.54894531 10.85502441 15.63304687 11.5625 16.75 C12.643915 18.44995848 13.72638834 20.14924005 14.80888367 21.84851074 C15.88036995 23.53077428 16.95093168 25.21362657 18.02148438 26.89648438 C20.60085066 30.94249921 23.20158399 34.97429479 25.8125 39 C26.2463501 39.6693457 26.6802002 40.33869141 27.12719727 41.02832031 C27.98645917 42.35364173 28.84591262 43.67883899 29.70556641 45.00390625 C32.43644063 49.21507706 35.16115715 53.43023661 37.88720703 57.64453125 C40.11436143 61.08714081 42.3426418 64.5290053 44.57421875 67.96875 C50.78595373 77.5482931 56.9467527 87.15980928 63.09643555 96.77929688 C66.88113415 102.6970098 70.67667714 108.6071721 74.5 114.5 C79.02947723 121.48121261 83.51758303 128.48849136 88 135.5 C93.87352641 144.68653341 99.77114672 153.85661303 105.70556641 163.00390625 C107.97322054 166.50076408 110.23631939 170.00056917 112.5 173.5 C117.36206674 181.01581616 117.36206674 181.01581616 122.22924805 188.52832031 C123.15390654 189.95873482 124.07469912 191.39165636 124.99145508 192.82714844 C127.14504277 196.19147119 129.33436475 199.49691353 131.69140625 202.72265625 C136.41745226 209.30919415 139.00219777 214.49320395 138.70703125 222.8671875 C136.88931493 230.92137806 131.75424674 237.65802068 127.25 244.4375 C125.89609184 246.49280252 124.54326327 248.54881653 123.19140625 250.60546875 C122.4967627 251.66169434 121.80211914 252.71791992 121.08642578 253.80615234 C117.74205066 258.92563693 114.46814847 264.08954896 111.1875 269.25 C105.07040391 278.85482141 98.79820262 288.34531229 92.45806885 297.80328369 C87.25977494 305.56150824 82.18206501 313.37483189 77.28125 321.32421875 C73.42297399 327.57536787 69.38643936 333.71383373 65.38232422 339.87207031 C63.57558144 342.65334372 61.77514335 345.4386681 59.97485352 348.22412109 C52.78300808 359.35073457 45.55741043 370.45540002 38.33398438 381.56152344 C29.87368938 394.57009688 21.43303735 407.59116365 13.01171875 420.625 C12.51816895 421.38852783 12.02461914 422.15205566 11.51611328 422.9387207 C10.57791454 424.39013968 9.64006355 425.84178353 8.70263672 427.29370117 C7.47161889 429.19789555 6.23607837 431.09908841 5 433 C4.42161377 433.90032959 4.42161377 433.90032959 3.83154297 434.81884766 C2.91400821 436.23002684 1.96079767 437.61791297 1 439 C0.67 439 0.34 439 0 439 C-0.30423463 429.69773302 -0.53367664 420.39723378 -0.67355824 411.09103775 C-0.74077571 406.76721023 -0.8315521 402.4468383 -0.98071289 398.125 C-2.18951686 362.15886395 -2.18951686 362.15886395 11.36650085 346.91799927 C14.03751247 343.78178806 16.14840881 340.3084287 18.3125 336.8125 C18.80580811 336.05098633 19.29911621 335.28947266 19.80737305 334.50488281 C23.09060031 329.42263602 26.34962445 324.32516464 29.60546875 319.2253418 C37.35515835 307.08834606 45.19694097 295.01673601 53.08984375 282.97265625 C57.66277105 275.99373685 62.19748782 268.99055045 66.72167969 261.97998047 C68.51697418 259.19926268 70.31533127 256.42053094 72.11376953 253.6418457 C73.02899605 252.22774175 73.94403882 250.81351885 74.85888672 249.39916992 C77.24707301 245.70712824 79.63756471 242.01660425 82.03125 238.328125 C82.52818359 237.56177734 83.02511719 236.79542969 83.53710938 236.00585938 C84.48563938 234.54317292 85.43481841 233.08090707 86.38476562 231.61914062 C87.22620639 230.32102587 88.06192212 229.0191739 88.890625 227.71289062 C89.85814639 226.21902397 90.89266927 224.76898028 91.9375 223.328125 C93.30290006 221.02916721 93.30290006 221.02916721 92.23706055 218.63525391 C91.05628971 216.11991142 89.76899808 213.84512056 88.26953125 211.5078125 C87.72184082 210.65018311 87.17415039 209.79255371 86.60986328 208.90893555 C86.0167334 207.99023682 85.42360352 207.07153809 84.8125 206.125 C84.19101074 205.1553833 83.56952148 204.1857666 82.92919922 203.18676758 C77.91301863 195.37592962 72.84031897 187.60193025 67.75805664 179.83398438 C62.35458228 171.56795929 57.02670662 163.25483269 51.71069336 154.93237305 C46.60140161 146.93432049 41.45981911 138.95800046 36.29443359 130.99609375 C34.02677942 127.49923587 31.76371401 123.99940928 29.5 120.5 C28.58074271 119.07941832 27.66147191 117.65884538 26.7421875 116.23828125 C24.93432906 113.44437653 23.12707712 110.65008093 21.3203125 107.85546875 C20.90072769 107.20959808 20.48114288 106.56372742 20.04884338 105.89828491 C19.14478578 104.49456527 18.25072543 103.0843162 17.3704071 101.66558838 C15.01098579 97.90381598 12.59504286 94.4536793 9.63549805 91.13891602 C-3.44672393 75.55943211 -1.54560179 58.04797137 -0.89263916 38.85955811 C-0.75778748 34.46840531 -0.69989108 30.07623583 -0.63476562 25.68359375 C-0.4968251 17.11965981 -0.27605959 8.56059201 0 0 Z " fill="#FF914B" transform="translate(360,42)"/>
<path d="M0 0 C93.74904943 0 93.74904943 0 115 18 C115.72832031 18.61617187 116.45664063 19.23234375 117.20703125 19.8671875 C126.69853231 28.61461295 133.31613185 41.07907314 134.20703125 54.00341797 C134.34915701 57.50428008 134.41295909 60.99636835 134.4375 64.5 C134.44773193 65.62736572 134.45796387 66.75473145 134.46850586 67.91625977 C134.2690959 87.13631163 127.87769819 103.08830008 114.9453125 117.25 C85.69251479 145.50930647 34.54787598 138 0 138 C0 92.46 0 46.92 0 0 Z " fill="#FDFDFD" transform="translate(87,115)"/>
</svg>
